<?xml version="1.0" encoding="UTF-8"?>
<svg width="1774px" height="266px" viewBox="0 0 1774 266" version="1.1" xmlns="http://www.w3.org/2000/svg" xmlns:xlink="http://www.w3.org/1999/xlink">
    <!-- Generator: Sketch 46 (44423) - http://www.bohemiancoding.com/sketch -->
    <title>Artboard</title>
    <desc>Created with Sketch.</desc>
    <defs>
        <linearGradient x1="50%" y1="3.08314732%" x2="50%" y2="100%" id="linearGradient-1">
            <stop stop-color="#09484D" offset="0%"></stop>
            <stop stop-color="#24D180" offset="100%"></stop>
        </linearGradient>
    </defs>
    <g id="Page-1" stroke="none" stroke-width="1" fill="none" fill-rule="evenodd">
        <g id="Artboard" stroke="#C6BBAA" fill-rule="nonzero" stroke-width="10" fill="url(#linearGradient-1)">
            <g id="Group-3" transform="translate(5.000000, 6.000000)">
                <path d="M2.84217094e-14,125.5 L2.84217094e-14,1.42108547e-14 L42.5608696,1.42108547e-14 C42.5608696,17.8246377 42.5608696,27.5008696 42.5608696,29.0286957 C42.5608696,44.1978261 51.2913043,57.8391304 68.0973913,77.7008696 C69.9526087,79.8834783 127.136957,140.778261 128.337391,140.778261 C128.482899,140.778261 128.628406,93.8521739 128.773913,1.42108547e-14 L171.334783,1.42108547e-14 L171.334783,251 L128.773913,251 C128.482899,216.805797 128.191884,199.708696 127.90087,199.708696 C127.318841,199.708696 98.8721739,171.152899 42.5608696,114.041304 L42.5608696,182.575217 L42.5608696,251 L2.84217094e-14,251 L2.84217094e-14,125.5 Z" id="Shape" transform="translate(85.667391, 125.500000) scale(-1, 1) rotate(-180.000000) translate(-85.667391, -125.500000) "></path>
                <g id="Group" transform="translate(182.000000, 39.000000)">
                    <path d="M54.1320182,106.939901 C56.2261002,102.658128 56.6449165,0 56.9590288,0 C57.2382398,0 68.5462822,8.49392447 90.8831563,25.4817734 L90.8831563,99.9428571 C107.266271,122.956458 118.958228,143.773535 125.959029,162.394089 C129.100152,170.748768 133.113809,187.284072 138,212 L117.687405,212 L97.2701062,212 L96.9559939,190.382266 C96.7465857,176.17931 88.7890744,157.799015 73.0834598,135.241379 L35.3899848,212 L0,212 C33.1562974,147.738588 51.2003035,112.718555 54.1320182,106.939901 Z" id="Shape" transform="translate(69.000000, 106.000000) scale(-1, 1) rotate(-180.000000) translate(-69.000000, -106.000000) "></path>
                    <path d="M157,180.464583 L157,0 L198.830645,0 L198.830645,72.9583333 C234.440323,82.0423611 257.322043,91.6986111 267.475806,101.927083 C282.706452,117.269792 290,130.359375 290,143.770833 C290,143.413194 290,164.15625 290,206 L181.133065,206 L157,180.464583 Z M243.235484,138.620833 C234.440323,122.527083 223.178226,114.802083 207.840323,114.158333 L199.045161,114.158333 L199.045161,169.520833 L247.096774,169.520833 C247.025269,153.570139 245.738172,143.270139 243.235484,138.620833 Z" id="Shape" transform="translate(223.500000, 103.000000) scale(-1, 1) rotate(-180.000000) translate(-223.500000, -103.000000) "></path>
                    <path d="M463,193.523437 L463,0 L499.68491,0 L499.68491,78.703125 L525.040657,78.703125 L559.891321,0 L601,0 L598.949961,3.5578125 C597.870993,5.390625 556.978108,85.7109375 554.172791,97.03125 C570.5,115.5 569.5,115 590.318217,136 C590.318217,154.032292 590.318217,177.698958 590.318217,207 L475.408131,207 L463,193.523437 Z M543.167318,138 C515.04222,123.625 500.691947,116.4375 500.116497,116.4375 C499.972635,116.4375 499.828772,134.40625 499.68491,170.34375 L543.167318,170.34375 L543.167318,138 Z" id="Shape" transform="translate(532.000000, 103.500000) scale(-1, 1) rotate(-180.000000) translate(-532.000000, -103.500000) "></path>
                    <path d="M324.115737,198.60283 L315,190.108019 L315.396336,131.913679 C315.792673,68.0561321 315.891757,66.884434 322.034971,53.9957547 C329.466278,38.0801887 346.905079,25.3867925 373.063281,16.6966981 C382.179017,13.6698113 431.225645,0 433.009159,0 C433.603664,0 434,6.83490566 434,17.8683962 L434,35.7367925 L410.318901,42.2787736 C382.97169,49.6995283 373.162365,53.2146226 364.839301,58.5849057 C355.327227,64.5410377 351.7602,72.840566 351.7602,88.365566 L351.7602,95.6886792 L385.448793,95.6886792 L419.137386,95.6886792 L419.137386,112.775943 L419.137386,129.863208 L385.448793,129.863208 L351.7602,129.863208 L351.7602,150.856132 L351.7602,171.849057 L392.8801,171.849057 L434,171.849057 L434,189.424528 L434,207 L383.566195,207 L333.231474,207 L324.115737,198.60283 Z" id="Shape" transform="translate(374.500000, 103.500000) scale(-1, 1) rotate(-180.000000) translate(-374.500000, -103.500000) "></path>
                </g>
            </g>
            <g id="Group-4" transform="translate(889.000000, 5.000000)">
                <path d="M11.8456507,240.2 L0.9,229.4 L1.30539447,161.4 C1.60944032,100.9 1.81213756,92.7 3.43371544,86 C10.8321645,55 32.1153742,33.7 68.3981794,21 C75.5939312,18.5 141.774579,5.68434189e-14 143.497505,5.68434189e-14 C143.700202,5.68434189e-14 143.9029,36.2 143.9029,80.5 L143.9029,161 L122.822387,161 L101.843223,161 L85.1207013,144.5 L68.3981794,128 L86.4382333,128 L104.376939,128 L104.376939,88.4 C104.376939,51.2 104.27559,48.9 102.654012,49.4 C101.640526,49.6 95.5596089,51.3 89.174646,53 C72.8575185,57.4 63.736143,61.9 56.1349966,69.4 C52.6891436,72.8 48.6351989,78 47.2163183,80.9 C41.8448415,91.3 41.5407957,94.5 41.5407957,157.8 L41.5407957,216 L67.8914363,216 L94.1407283,216 L94.4447741,206.1 L94.74882,196.3 L123.025084,223.6 L151.2,251 L86.9449764,251 L22.7913014,251 L11.8456507,240.2 Z" id="Shape" transform="translate(76.050000, 125.500000) scale(-1, 1) rotate(-180.000000) translate(-76.050000, -125.500000) "></path>
                <path d="M716,240.2 C716,239.3 723.592593,230.9 733.007407,221.7 L749.91358,205 L763.883951,205 L777.753086,205 L777.753086,102.5 L777.753086,-5.68434189e-14 L798,-5.68434189e-14 L818.246914,-5.68434189e-14 L818.246914,102.5 L818.246914,205 L832.217284,205 L846.08642,205 L863.093827,221.8 C872.407407,231 880,239.3 880,240.3 C880,241.9 875.241975,242 798,242 C720.353086,242 716,241.9 716,240.2 Z" id="Shape" transform="translate(798.000000, 121.000000) scale(-1, 1) rotate(-180.000000) translate(-798.000000, -121.000000) "></path>
                <g id="Group-2" transform="translate(174.000000, 38.000000)">
                    <path d="M1.30377181,145.9 C1.70754361,71.1 1.70754361,71.7 7.9660066,55.5 C14.2244696,39.7 27.851768,24.6 50.2611033,8.8 L62.6770863,1.42108547e-14 L73.9826968,7.4 C85.9949081,15.3 101.035408,27.8 105.476898,33.5 L108.101414,36.9 L118.90231,26.2 C126.372089,18.7 133.337152,13.1 141.513531,7.7 L153.323857,1.42108547e-14 L166.244554,9.3 C188.250118,25.1 199.151957,36.8 206.318906,52.3 C214.192456,69.4 215,78.4 215,153.1 L215,214.1 L196.325554,213.9 L177.550165,213.6 L177.550165,154.1 C177.550165,121.4 177.247336,89.3 176.742621,82.9 C175.632249,67.1 172.906789,61.4 161.399293,50.3 C153.727628,42.8 152.819142,42.2 151.002169,43.5 C146.863508,46.1 137.072041,58.7 133.740924,65.6 C127.684347,78.2 127.179632,83 127.179632,131.1 L127.179632,174.1 L108.3033,173.9 L89.3260255,173.6 L89.4269684,130.6 C89.4269684,103.3 89.9316832,85.2 90.6382838,81.1 C92.354314,71.5 89.8307402,66.7 75.4968411,52.6 L64.2921735,41.7 L57.125224,49.2 C48.746959,58 44.2045262,65.8 41.1762376,76.8 C39.0564356,84.3 38.9554927,86.7 38.5517209,149.4 L38.1479491,214.1 L19.574446,214.1 L0.9,214.1 L1.30377181,145.9 Z" id="Shape" transform="translate(107.950000, 107.050000) scale(-1, 1) rotate(-180.000000) translate(-107.950000, -107.050000) "></path>
                    <path d="M254.253206,203.4 L244.9,194.7 L245.306661,135.1 C245.713322,69.7 245.814988,68.5 252.118235,55.3 C259.743131,39 277.63622,26 304.475853,17.1 C313.829059,14 364.153372,0 365.983347,0 C366.593339,0 367,7 367,18.3 L367,36.6 L342.701998,43.3 C314.642381,50.9 304.577519,54.5 296.037635,60 C286.277769,66.1 282.617818,74.6 282.617818,90.5 L282.617818,98 L317.184013,98 L351.750208,98 L351.750208,115.5 L351.750208,133 L317.184013,133 L282.617818,133 L282.617818,154.5 L282.617818,176 L324.808909,176 L367,176 L367,194 L367,212 L315.252373,212 L263.606411,212 L254.253206,203.4 Z" id="Shape" transform="translate(305.950000, 106.000000) scale(-1, 1) rotate(-180.000000) translate(-305.950000, -106.000000) "></path>
                    <path d="M394.709333,203.3 C394.304,203 394,157.1 394,101.3 L394,-5.68434189e-14 L413.253333,-5.68434189e-14 L432.506667,-5.68434189e-14 L432.506667,66.4 L432.506667,132.8 L454.192,111.2 C484.490667,80.9 493.914667,69.3 502.528,51.7 C508,40.4 509.52,32.5 509.52,14.8 L509.52,-5.68434189e-14 L527.76,-5.68434189e-14 L546,-5.68434189e-14 L546,102 L546,204 L527.253333,204 L508.506667,204 L508.506667,153.4 L508.506667,102.9 L502.224,111.2 C498.677333,115.7 481.552,133.7 464.224,151.1 L432.506667,182.7 L432.506667,193.4 L432.506667,204 L413.962667,204 C403.728,204 395.013333,203.7 394.709333,203.3 Z" id="Shape" transform="translate(470.000000, 102.000000) scale(-1, 1) rotate(-180.000000) translate(-470.000000, -102.000000) "></path>
                </g>
            </g>
        </g>
    </g>
</svg>
